<svg xmlns="http://www.w3.org/2000/svg" xmlns:xlink="http://www.w3.org/1999/xlink" viewBox="0 0 62 24"><g><defs><linearGradient id="idss8898222026_1g748429145" x1="0.5143944319040976" x2="0.4937415513460445" y1="1.65" y2="0"><stop offset="0" stop-color="rgb(70, 107, 144)" stop-opacity="1"></stop><stop offset="1" stop-color="rgb(15, 23, 31)" stop-opacity="1"></stop></linearGradient></defs><path d="M 14.095 1.582 L 14.095 8.681 L 9.261 8.681 C 9.016 8.681 8.833 8.864 8.833 9.078 L 14.095 9.078 L 14.095 16.207 L 8.833 16.207 L 8.833 23 L 1.306 23 L 1.306 9.415 C 1.306 4.672 4.641 1.613 9.384 1.582 Z" fill="url(#idss8898222026_1g748429145)"></path></g><g><defs><linearGradient id="idss8898222026_2g748429145" x1="0.5143944319040976" x2="0.4937415513460445" y1="1.65" y2="0"><stop offset="0" stop-color="rgb(70, 107, 144)" stop-opacity="1"></stop><stop offset="1" stop-color="rgb(15, 23, 31)" stop-opacity="1"></stop></linearGradient></defs><path d="M 14.961 1.552 L 22.488 1.552 L 22.488 23 L 14.961 23 Z" fill="url(#idss8898222026_2g748429145)"></path></g><g><defs><linearGradient id="idss8898222026_3g748429145" x1="0.5143944319040976" x2="0.4937415513460445" y1="1.65" y2="0"><stop offset="0" stop-color="rgb(70, 107, 144)" stop-opacity="1"></stop><stop offset="1" stop-color="rgb(15, 23, 31)" stop-opacity="1"></stop></linearGradient></defs><path d="M 31.931 5.315 C 36.796 5.315 40.773 9.262 40.773 14.158 L 40.773 23 L 33.43 23 L 33.43 14.158 C 33.43 13.331 32.757 12.628 31.931 12.628 C 31.074 12.628 30.401 13.331 30.401 14.158 C 30.401 14.984 31.074 15.687 31.931 15.687 L 33.002 15.687 L 33.002 23 L 31.931 23 C 27.035 23 23.088 19.022 23.088 14.158 C 23.088 9.262 27.035 5.315 31.931 5.315 Z" fill="url(#idss8898222026_3g748429145)"></path></g><g><defs><linearGradient id="idss8898222026_4g748429145" x1="0.5143944319040976" x2="0.4937415513460445" y1="1.65" y2="0"><stop offset="0" stop-color="rgb(70, 107, 144)" stop-opacity="1"></stop><stop offset="1" stop-color="rgb(15, 23, 31)" stop-opacity="1"></stop></linearGradient></defs><path d="M 41.584 5.835 L 49.111 5.835 L 49.111 23 L 41.584 23 Z" fill="url(#idss8898222026_4g748429145)"></path></g><g><defs><linearGradient id="idss8898222026_5g748429145" x1="0.5143944319040976" x2="0.4937415513460445" y1="1.65" y2="0"><stop offset="0" stop-color="rgb(70, 107, 144)" stop-opacity="1"></stop><stop offset="1" stop-color="rgb(15, 23, 31)" stop-opacity="1"></stop></linearGradient></defs><path d="M 60.843 5.835 L 60.843 13.025 L 57.936 13.025 C 57.63 13.025 57.477 13.209 57.477 13.484 L 57.477 23 L 49.95 23 L 49.95 13.79 C 49.95 8.987 53.316 5.835 58.12 5.835 Z" fill="url(#idss8898222026_5g748429145)"></path></g></svg>